<?xml version="1.0" encoding="utf-8"?>
<!-- Generator: Adobe Illustrator 23.0.4, SVG Export Plug-In . SVG Version: 6.00 Build 0)  -->
<svg version="1.1" id="Camada_1" xmlns="http://www.w3.org/2000/svg" xmlns:xlink="http://www.w3.org/1999/xlink" x="0px" y="0px"
	 viewBox="0 0 35 35" style="enable-background:new 0 0 35 35;" xml:space="preserve">
<style type="text/css">
	.st0{fill:#FF9D1C;}
	.st1{fill:none;stroke:#595959;stroke-width:0.25;stroke-miterlimit:10;}
</style>
<path class="st0" d="M21.63,17.59c0.85-0.44,1.39-1.21,1.27-2.5c-0.16-1.76-1.61-2.35-3.53-2.52v-2.44h-1.49v2.37
	c-0.39,0-0.78,0.01-1.18,0.02v-2.39h-1.49v2.44c-0.55,0.02-1.19,0.01-2.99,0v1.59c1.18-0.02,1.79-0.1,1.93,0.66v6.68
	c-0.09,0.6-0.57,0.51-1.63,0.49l-0.3,1.77c2.72,0,2.99,0.01,2.99,0.01v2.09h1.49V23.8c0.41,0.01,0.8,0.01,1.18,0.01v2.05h1.49v-2.09
	c2.5-0.14,4.16-0.76,4.39-3.12C23.93,18.77,23.04,17.93,21.63,17.59L21.63,17.59z M16.73,14.27c0.84,0,3.47-0.26,3.47,1.49
	c0,1.67-2.63,1.48-3.47,1.48V14.27L16.73,14.27z M16.73,22v-3.27c1.01,0,4.09-0.28,4.09,1.63C20.82,22.21,17.74,22,16.73,22
	L16.73,22z"/>
<path class="st1" d="M20.93,30.6h-5.87c-5.08,0-9.2-4.12-9.2-9.2v-6.8c0-5.08,4.12-9.2,9.2-9.2h5.87c5.08,0,9.2,4.12,9.2,9.2v6.8
	C30.13,26.48,26.01,30.6,20.93,30.6z"/>
</svg>
