<?xml version="1.0" encoding="utf-8"?>
<!-- Generator: Adobe Illustrator 23.0.4, SVG Export Plug-In . SVG Version: 6.00 Build 0)  -->
<svg version="1.1" id="Camada_1" xmlns="http://www.w3.org/2000/svg" xmlns:xlink="http://www.w3.org/1999/xlink" x="0px" y="0px"
	 viewBox="0 0 250 250" style="enable-background:new 0 0 250 250;" xml:space="preserve">
<style type="text/css">
	.st0{fill:#FF3E3E;}
</style>
<g>
	<path class="st0" d="M214.14,75.92c0,3.21,4.85,3.2,4.85,0c0-3.96-2.67-7.27-6.29-8.33v-1.1c0-3.21-4.85-3.2-4.85,0v1.1
		c-8.35,2.44-8.36,14.21,0,16.65v7.23c-0.87-0.71-1.44-1.77-1.44-2.98c0-3.21-4.85-3.2-4.85,0c0,3.96,2.67,7.27,6.29,8.33v1.1
		c0,3.21,4.85,3.2,4.85,0v-1.1c8.35-2.44,8.36-14.21,0-16.65v-7.23C213.57,73.64,214.14,74.71,214.14,75.92z M207.85,72.94v5.96
		C205.94,77.34,205.94,74.5,207.85,72.94z M212.7,91.47v-5.96C214.62,87.07,214.62,89.91,212.7,91.47z"/>
	<path class="st0" d="M210.28,57.15c-13.82,0-25.06,11.24-25.06,25.06s11.24,25.06,25.06,25.06c13.82,0,25.06-11.24,25.06-25.06
		S224.09,57.15,210.28,57.15z M210.28,102.41c-11.14,0-20.21-9.06-20.21-20.21S199.13,62,210.28,62c11.14,0,20.21,9.07,20.21,20.21
		S221.42,102.41,210.28,102.41z"/>
	<path class="st0" d="M210.28,43.41c-32.12,0-50.42,37.09-30.61,62.55l-19.82,19.82c-4.96-2.68-10.95-2.68-15.92,0l-24.62-24.62
		c6.01-11.14-2.1-24.78-14.82-24.78c-12.71,0-20.83,13.63-14.82,24.78l-35.09,35.09c-11.14-6.01-24.78,2.1-24.78,14.82
		c0,9.28,7.55,16.82,16.82,16.82c12.71,0,20.82-13.63,14.81-24.78l35.1-35.1c4.96,2.67,10.94,2.68,15.91,0l24.62,24.62
		c-6.01,11.14,2.1,24.78,14.82,24.78c12.71,0,20.83-13.63,14.82-24.78l19.82-19.82c25.46,19.8,62.55,1.52,62.55-30.61
		C249.07,60.81,231.67,43.41,210.28,43.41z M46.63,158.2c-3.93,0-7.12-3.19-7.12-7.12s3.19-7.12,7.12-7.12
		c3.93,0,7.12,3.19,7.12,7.12S50.55,158.2,46.63,158.2z M97.37,93.21c0-3.93,3.19-7.12,7.12-7.12c3.93,0,7.12,3.19,7.12,7.12
		c0,3.91-3.22,7.12-7.12,7.12C100.59,100.33,97.37,97.11,97.37,93.21z M151.88,147.72c-3.93,0-7.12-3.19-7.12-7.12
		s3.19-7.12,7.12-7.12s7.12,3.19,7.12,7.12S155.81,147.72,151.88,147.72z M210.28,111.3c-16.05,0-29.1-13.05-29.1-29.1
		c0-16.05,13.05-29.1,29.1-29.1c16.05,0,29.1,13.05,29.1,29.1C239.38,98.25,226.32,111.3,210.28,111.3z"/>
	<path class="st0" d="M232.2,198.6H11.53V48.26c0-6.41-9.7-6.42-9.7,0v155.19c0,2.68,2.17,4.85,4.85,4.85H232.2
		C238.61,208.3,238.62,198.6,232.2,198.6z"/>
</g>
</svg>
