<?xml version="1.0" encoding="utf-8"?>
<!-- Generator: Adobe Illustrator 23.0.4, SVG Export Plug-In . SVG Version: 6.00 Build 0)  -->
<svg version="1.1" id="Camada_1" xmlns="http://www.w3.org/2000/svg" xmlns:xlink="http://www.w3.org/1999/xlink" x="0px" y="0px"
	 viewBox="0 0 48 48" style="enable-background:new 0 0 48 48;" xml:space="preserve">
<style type="text/css">
	.st0{fill:none;stroke:#3381FF;stroke-width:2;stroke-linecap:round;stroke-linejoin:round;}
</style>
<title>8-Planning</title>
<g id="_8-Planning">
	<path class="st0" d="M7,47h33c3.87,0,7-3.13,7-7s-3.13-7-7-7H8c3.87,0,7,3.13,7,7s-3.13,7-7,7s-7-3.13-7-7V5c0,0,0-4,4-4h31
		c0,0,4,0,4,4v1"/>
	<path class="st0" d="M15,14c0.55,0,1-0.45,1-1V9c0-0.55-0.45-1-1-1H7C6.45,8,6,8.45,6,9v4c0,0.55,0.45,1,1,1h3
		c0.54-0.01,0.99,0.42,1,0.96c0,0.01,0,0.03,0,0.04v5"/>
	<path class="st0" d="M7,20c-0.55,0-1,0.45-1,1v4c0,0.55,0.45,1,1,1h8c0.55,0,1-0.45,1-1v-4c0-0.55-0.45-1-1-1"/>
	<path class="st0" d="M42,16h-2.26c-0.19-0.72-0.47-1.42-0.85-2.06l1.6-1.6c0.39-0.39,0.39-1.02,0-1.41l-1.41-1.41
		c-0.39-0.39-1.02-0.39-1.41,0l-1.6,1.6c-0.64-0.38-1.33-0.67-2.06-0.85V8c0-0.55-0.45-1-1-1h-2c-0.55,0-1,0.45-1,1v2.26
		c-0.72,0.19-1.42,0.47-2.06,0.85l-1.6-1.6c-0.39-0.39-1.02-0.39-1.41,0l-1.41,1.41c-0.39,0.39-0.39,1.02,0,1.41l1.6,1.6
		c-0.38,0.64-0.67,1.34-0.85,2.06H22c-0.55,0-1,0.45-1,1v2c0,0.55,0.45,1,1,1h2.26c0.19,0.72,0.47,1.42,0.85,2.06l-1.6,1.6
		c-0.39,0.39-0.39,1.02,0,1.41l1.41,1.41c0.39,0.39,1.02,0.39,1.41,0l1.6-1.6c0.64,0.38,1.34,0.67,2.06,0.85V28c0,0.55,0.45,1,1,1h2
		c0.55,0,1-0.45,1-1v-2.26c0.72-0.19,1.42-0.47,2.06-0.85l1.6,1.6c0.39,0.39,1.02,0.39,1.41,0l1.41-1.41c0.39-0.39,0.39-1.02,0-1.41
		l-1.6-1.6c0.38-0.64,0.67-1.34,0.85-2.06H42c0.55,0,1-0.45,1-1v-2C43,16.45,42.55,16,42,16z"/>
	<circle class="st0" cx="32" cy="18" r="3"/>
	<line class="st0" x1="40" y1="33" x2="40" y2="30"/>
</g>
</svg>
