<?xml version="1.0" encoding="utf-8"?>
<!-- Generator: Adobe Illustrator 23.0.4, SVG Export Plug-In . SVG Version: 6.00 Build 0)  -->
<svg version="1.1" id="Camada_1" xmlns="http://www.w3.org/2000/svg" xmlns:xlink="http://www.w3.org/1999/xlink" x="0px" y="0px"
	 viewBox="0 0 20 14.7" style="enable-background:new 0 0 20 14.7;" xml:space="preserve">
<style type="text/css">
	.st0{fill-rule:evenodd;clip-rule:evenodd;fill:#FF9D1C;}
</style>
<path id="Forma_1" class="st0" d="M0.2,6.9c-0.2,0.3-0.2,0.7,0,0.9l6.7,6.7c0.2,0.2,0.6,0.3,0.9,0c0,0,0,0,0,0
	c0.2-0.3,0.2-0.7,0-0.9L2.2,8h17.2C19.7,8,20,7.7,20,7.3c0-0.3-0.3-0.6-0.6-0.6H2.2l5.6-5.6C8,0.8,8,0.4,7.8,0.2
	c-0.2-0.2-0.6-0.3-0.9,0c0,0,0,0,0,0L0.2,6.9z"/>
</svg>
