<?xml version="1.0" encoding="utf-8"?>
<!-- Generator: Adobe Illustrator 23.0.4, SVG Export Plug-In . SVG Version: 6.00 Build 0)  -->
<svg version="1.1" id="Camada_1" xmlns="http://www.w3.org/2000/svg" xmlns:xlink="http://www.w3.org/1999/xlink" x="0px" y="0px"
	 viewBox="0 0 38 28" style="enable-background:new 0 0 38 28;" xml:space="preserve">
<style type="text/css">
	.st0{fill:#A3C3EB;}
</style>
<g>
	<g transform="translate(-1377 -5473)">
		<g>
			<path id="nvcba" class="st0" d="M1402,5473.3C1402,5473.3,1402,5473.3,1402,5473.3c-0.5-0.5-1.2-0.5-1.7,0
				c-0.5,0.5-0.5,1.2,0,1.7l10.6,10.7h-32.7c-0.7,0-1.2,0.5-1.2,1.2s0.5,1.2,1.2,1.2h32.7l-10.6,10.7c-0.5,0.5-0.5,1.2,0,1.7
				c0,0,0,0,0,0c0.5,0.5,1.2,0.5,1.7,0l12.7-12.8c0.5-0.5,0.5-1.2,0-1.7L1402,5473.3z"/>
		</g>
	</g>
</g>
</svg>
